G04 #@! TF.FileFunction,Legend,Top*
%FSLAX46Y46*%
G04 Gerber Fmt 4.6, Leading zero omitted, Abs format (unit mm)*
G04 Created by KiCad (PCBNEW 4.0.6-e0-6349~53~ubuntu16.04.1) date Thu Jun 15 14:39:01 2017*
%MOMM*%
%LPD*%
G01*
G04 APERTURE LIST*
%ADD10C,0.100000*%
%ADD11C,0.150000*%
%ADD12C,0.300000*%
%ADD13C,0.200000*%
%ADD14C,0.120000*%
G04 APERTURE END LIST*
D10*
D11*
X99280000Y-63260000D02*
X153280000Y-63260000D01*
X99280000Y-95260000D02*
X99280000Y-63260000D01*
X153280000Y-95260000D02*
X99280000Y-95260000D01*
X153280000Y-63260000D02*
X153280000Y-95260000D01*
D12*
X117030001Y-91581429D02*
X117101430Y-91510000D01*
X117244287Y-91438571D01*
X117601430Y-91438571D01*
X117744287Y-91510000D01*
X117815716Y-91581429D01*
X117887144Y-91724286D01*
X117887144Y-91867143D01*
X117815716Y-92081429D01*
X116958573Y-92938571D01*
X117887144Y-92938571D01*
X118530001Y-92795714D02*
X118601429Y-92867143D01*
X118530001Y-92938571D01*
X118458572Y-92867143D01*
X118530001Y-92795714D01*
X118530001Y-92938571D01*
X119530001Y-91438571D02*
X119672858Y-91438571D01*
X119815715Y-91510000D01*
X119887144Y-91581429D01*
X119958573Y-91724286D01*
X120030001Y-92010000D01*
X120030001Y-92367143D01*
X119958573Y-92652857D01*
X119887144Y-92795714D01*
X119815715Y-92867143D01*
X119672858Y-92938571D01*
X119530001Y-92938571D01*
X119387144Y-92867143D01*
X119315715Y-92795714D01*
X119244287Y-92652857D01*
X119172858Y-92367143D01*
X119172858Y-92010000D01*
X119244287Y-91724286D01*
X119315715Y-91581429D01*
X119387144Y-91510000D01*
X119530001Y-91438571D01*
X120672858Y-92938571D02*
X120672858Y-91938571D01*
X120672858Y-92081429D02*
X120744286Y-92010000D01*
X120887144Y-91938571D01*
X121101429Y-91938571D01*
X121244286Y-92010000D01*
X121315715Y-92152857D01*
X121315715Y-92938571D01*
X121315715Y-92152857D02*
X121387144Y-92010000D01*
X121530001Y-91938571D01*
X121744286Y-91938571D01*
X121887144Y-92010000D01*
X121958572Y-92152857D01*
X121958572Y-92938571D01*
X122672858Y-92938571D02*
X122672858Y-91938571D01*
X122672858Y-92081429D02*
X122744286Y-92010000D01*
X122887144Y-91938571D01*
X123101429Y-91938571D01*
X123244286Y-92010000D01*
X123315715Y-92152857D01*
X123315715Y-92938571D01*
X123315715Y-92152857D02*
X123387144Y-92010000D01*
X123530001Y-91938571D01*
X123744286Y-91938571D01*
X123887144Y-92010000D01*
X123958572Y-92152857D01*
X123958572Y-92938571D01*
X125601429Y-91938571D02*
X126172858Y-91938571D01*
X125815715Y-91438571D02*
X125815715Y-92724286D01*
X125887143Y-92867143D01*
X126030001Y-92938571D01*
X126172858Y-92938571D01*
X126887144Y-92938571D02*
X126744286Y-92867143D01*
X126672858Y-92795714D01*
X126601429Y-92652857D01*
X126601429Y-92224286D01*
X126672858Y-92081429D01*
X126744286Y-92010000D01*
X126887144Y-91938571D01*
X127101429Y-91938571D01*
X127244286Y-92010000D01*
X127315715Y-92081429D01*
X127387144Y-92224286D01*
X127387144Y-92652857D01*
X127315715Y-92795714D01*
X127244286Y-92867143D01*
X127101429Y-92938571D01*
X126887144Y-92938571D01*
X129101429Y-91581429D02*
X129172858Y-91510000D01*
X129315715Y-91438571D01*
X129672858Y-91438571D01*
X129815715Y-91510000D01*
X129887144Y-91581429D01*
X129958572Y-91724286D01*
X129958572Y-91867143D01*
X129887144Y-92081429D01*
X129030001Y-92938571D01*
X129958572Y-92938571D01*
X130601429Y-92795714D02*
X130672857Y-92867143D01*
X130601429Y-92938571D01*
X130530000Y-92867143D01*
X130601429Y-92795714D01*
X130601429Y-92938571D01*
X132030001Y-91438571D02*
X131315715Y-91438571D01*
X131244286Y-92152857D01*
X131315715Y-92081429D01*
X131458572Y-92010000D01*
X131815715Y-92010000D01*
X131958572Y-92081429D01*
X132030001Y-92152857D01*
X132101429Y-92295714D01*
X132101429Y-92652857D01*
X132030001Y-92795714D01*
X131958572Y-92867143D01*
X131815715Y-92938571D01*
X131458572Y-92938571D01*
X131315715Y-92867143D01*
X131244286Y-92795714D01*
X133387143Y-91938571D02*
X133387143Y-92938571D01*
X133030000Y-91367143D02*
X132672857Y-92438571D01*
X133601429Y-92438571D01*
X134172857Y-92938571D02*
X134172857Y-91938571D01*
X134172857Y-92081429D02*
X134244285Y-92010000D01*
X134387143Y-91938571D01*
X134601428Y-91938571D01*
X134744285Y-92010000D01*
X134815714Y-92152857D01*
X134815714Y-92938571D01*
X134815714Y-92152857D02*
X134887143Y-92010000D01*
X135030000Y-91938571D01*
X135244285Y-91938571D01*
X135387143Y-92010000D01*
X135458571Y-92152857D01*
X135458571Y-92938571D01*
X136172857Y-92938571D02*
X136172857Y-91938571D01*
X136172857Y-92081429D02*
X136244285Y-92010000D01*
X136387143Y-91938571D01*
X136601428Y-91938571D01*
X136744285Y-92010000D01*
X136815714Y-92152857D01*
X136815714Y-92938571D01*
X136815714Y-92152857D02*
X136887143Y-92010000D01*
X137030000Y-91938571D01*
X137244285Y-91938571D01*
X137387143Y-92010000D01*
X137458571Y-92152857D01*
X137458571Y-92938571D01*
D13*
X133280000Y-65260000D02*
X137280000Y-65260000D01*
X133280000Y-68260000D02*
X133280000Y-65260000D01*
X131280000Y-68260000D02*
X133280000Y-68260000D01*
X131280000Y-65260000D02*
X131280000Y-68260000D01*
X129280000Y-65260000D02*
X131280000Y-65260000D01*
X129280000Y-68260000D02*
X129280000Y-65260000D01*
X127280000Y-68260000D02*
X129280000Y-68260000D01*
X127280000Y-65260000D02*
X127280000Y-68260000D01*
X125280000Y-65260000D02*
X127280000Y-65260000D01*
X125280000Y-68260000D02*
X125280000Y-65260000D01*
X123280000Y-68260000D02*
X125280000Y-68260000D01*
X123280000Y-65260000D02*
X123280000Y-68260000D01*
X121280000Y-65260000D02*
X123280000Y-65260000D01*
X121280000Y-68260000D02*
X121280000Y-65260000D01*
X119280000Y-68260000D02*
X121280000Y-68260000D01*
D12*
X147858572Y-91538571D02*
X147858572Y-90038571D01*
X148430000Y-90038571D01*
X148572858Y-90110000D01*
X148644286Y-90181429D01*
X148715715Y-90324286D01*
X148715715Y-90538571D01*
X148644286Y-90681429D01*
X148572858Y-90752857D01*
X148430000Y-90824286D01*
X147858572Y-90824286D01*
X149644286Y-90038571D02*
X149787143Y-90038571D01*
X149930000Y-90110000D01*
X150001429Y-90181429D01*
X150072858Y-90324286D01*
X150144286Y-90610000D01*
X150144286Y-90967143D01*
X150072858Y-91252857D01*
X150001429Y-91395714D01*
X149930000Y-91467143D01*
X149787143Y-91538571D01*
X149644286Y-91538571D01*
X149501429Y-91467143D01*
X149430000Y-91395714D01*
X149358572Y-91252857D01*
X149287143Y-90967143D01*
X149287143Y-90610000D01*
X149358572Y-90324286D01*
X149430000Y-90181429D01*
X149501429Y-90110000D01*
X149644286Y-90038571D01*
X151430000Y-90038571D02*
X151144286Y-90038571D01*
X151001429Y-90110000D01*
X150930000Y-90181429D01*
X150787143Y-90395714D01*
X150715714Y-90681429D01*
X150715714Y-91252857D01*
X150787143Y-91395714D01*
X150858571Y-91467143D01*
X151001429Y-91538571D01*
X151287143Y-91538571D01*
X151430000Y-91467143D01*
X151501429Y-91395714D01*
X151572857Y-91252857D01*
X151572857Y-90895714D01*
X151501429Y-90752857D01*
X151430000Y-90681429D01*
X151287143Y-90610000D01*
X151001429Y-90610000D01*
X150858571Y-90681429D01*
X150787143Y-90752857D01*
X150715714Y-90895714D01*
X147858572Y-88938571D02*
X147858572Y-87438571D01*
X148430000Y-87438571D01*
X148572858Y-87510000D01*
X148644286Y-87581429D01*
X148715715Y-87724286D01*
X148715715Y-87938571D01*
X148644286Y-88081429D01*
X148572858Y-88152857D01*
X148430000Y-88224286D01*
X147858572Y-88224286D01*
X149644286Y-87438571D02*
X149787143Y-87438571D01*
X149930000Y-87510000D01*
X150001429Y-87581429D01*
X150072858Y-87724286D01*
X150144286Y-88010000D01*
X150144286Y-88367143D01*
X150072858Y-88652857D01*
X150001429Y-88795714D01*
X149930000Y-88867143D01*
X149787143Y-88938571D01*
X149644286Y-88938571D01*
X149501429Y-88867143D01*
X149430000Y-88795714D01*
X149358572Y-88652857D01*
X149287143Y-88367143D01*
X149287143Y-88010000D01*
X149358572Y-87724286D01*
X149430000Y-87581429D01*
X149501429Y-87510000D01*
X149644286Y-87438571D01*
X151001429Y-88081429D02*
X150858571Y-88010000D01*
X150787143Y-87938571D01*
X150715714Y-87795714D01*
X150715714Y-87724286D01*
X150787143Y-87581429D01*
X150858571Y-87510000D01*
X151001429Y-87438571D01*
X151287143Y-87438571D01*
X151430000Y-87510000D01*
X151501429Y-87581429D01*
X151572857Y-87724286D01*
X151572857Y-87795714D01*
X151501429Y-87938571D01*
X151430000Y-88010000D01*
X151287143Y-88081429D01*
X151001429Y-88081429D01*
X150858571Y-88152857D01*
X150787143Y-88224286D01*
X150715714Y-88367143D01*
X150715714Y-88652857D01*
X150787143Y-88795714D01*
X150858571Y-88867143D01*
X151001429Y-88938571D01*
X151287143Y-88938571D01*
X151430000Y-88867143D01*
X151501429Y-88795714D01*
X151572857Y-88652857D01*
X151572857Y-88367143D01*
X151501429Y-88224286D01*
X151430000Y-88152857D01*
X151287143Y-88081429D01*
X147858572Y-86338571D02*
X147858572Y-84838571D01*
X148430000Y-84838571D01*
X148572858Y-84910000D01*
X148644286Y-84981429D01*
X148715715Y-85124286D01*
X148715715Y-85338571D01*
X148644286Y-85481429D01*
X148572858Y-85552857D01*
X148430000Y-85624286D01*
X147858572Y-85624286D01*
X150144286Y-86338571D02*
X149287143Y-86338571D01*
X149715715Y-86338571D02*
X149715715Y-84838571D01*
X149572858Y-85052857D01*
X149430000Y-85195714D01*
X149287143Y-85267143D01*
X151072857Y-84838571D02*
X151215714Y-84838571D01*
X151358571Y-84910000D01*
X151430000Y-84981429D01*
X151501429Y-85124286D01*
X151572857Y-85410000D01*
X151572857Y-85767143D01*
X151501429Y-86052857D01*
X151430000Y-86195714D01*
X151358571Y-86267143D01*
X151215714Y-86338571D01*
X151072857Y-86338571D01*
X150930000Y-86267143D01*
X150858571Y-86195714D01*
X150787143Y-86052857D01*
X150715714Y-85767143D01*
X150715714Y-85410000D01*
X150787143Y-85124286D01*
X150858571Y-84981429D01*
X150930000Y-84910000D01*
X151072857Y-84838571D01*
X147858572Y-83738571D02*
X147858572Y-82238571D01*
X148430000Y-82238571D01*
X148572858Y-82310000D01*
X148644286Y-82381429D01*
X148715715Y-82524286D01*
X148715715Y-82738571D01*
X148644286Y-82881429D01*
X148572858Y-82952857D01*
X148430000Y-83024286D01*
X147858572Y-83024286D01*
X150144286Y-83738571D02*
X149287143Y-83738571D01*
X149715715Y-83738571D02*
X149715715Y-82238571D01*
X149572858Y-82452857D01*
X149430000Y-82595714D01*
X149287143Y-82667143D01*
X150715714Y-82381429D02*
X150787143Y-82310000D01*
X150930000Y-82238571D01*
X151287143Y-82238571D01*
X151430000Y-82310000D01*
X151501429Y-82381429D01*
X151572857Y-82524286D01*
X151572857Y-82667143D01*
X151501429Y-82881429D01*
X150644286Y-83738571D01*
X151572857Y-83738571D01*
X147858572Y-81138571D02*
X147858572Y-79638571D01*
X148430000Y-79638571D01*
X148572858Y-79710000D01*
X148644286Y-79781429D01*
X148715715Y-79924286D01*
X148715715Y-80138571D01*
X148644286Y-80281429D01*
X148572858Y-80352857D01*
X148430000Y-80424286D01*
X147858572Y-80424286D01*
X150144286Y-81138571D02*
X149287143Y-81138571D01*
X149715715Y-81138571D02*
X149715715Y-79638571D01*
X149572858Y-79852857D01*
X149430000Y-79995714D01*
X149287143Y-80067143D01*
X151430000Y-80138571D02*
X151430000Y-81138571D01*
X151072857Y-79567143D02*
X150715714Y-80638571D01*
X151644286Y-80638571D01*
X147858572Y-78538571D02*
X147858572Y-77038571D01*
X148430000Y-77038571D01*
X148572858Y-77110000D01*
X148644286Y-77181429D01*
X148715715Y-77324286D01*
X148715715Y-77538571D01*
X148644286Y-77681429D01*
X148572858Y-77752857D01*
X148430000Y-77824286D01*
X147858572Y-77824286D01*
X150144286Y-78538571D02*
X149287143Y-78538571D01*
X149715715Y-78538571D02*
X149715715Y-77038571D01*
X149572858Y-77252857D01*
X149430000Y-77395714D01*
X149287143Y-77467143D01*
X151430000Y-77038571D02*
X151144286Y-77038571D01*
X151001429Y-77110000D01*
X150930000Y-77181429D01*
X150787143Y-77395714D01*
X150715714Y-77681429D01*
X150715714Y-78252857D01*
X150787143Y-78395714D01*
X150858571Y-78467143D01*
X151001429Y-78538571D01*
X151287143Y-78538571D01*
X151430000Y-78467143D01*
X151501429Y-78395714D01*
X151572857Y-78252857D01*
X151572857Y-77895714D01*
X151501429Y-77752857D01*
X151430000Y-77681429D01*
X151287143Y-77610000D01*
X151001429Y-77610000D01*
X150858571Y-77681429D01*
X150787143Y-77752857D01*
X150715714Y-77895714D01*
X147644286Y-75867143D02*
X147858572Y-75938571D01*
X148215715Y-75938571D01*
X148358572Y-75867143D01*
X148430001Y-75795714D01*
X148501429Y-75652857D01*
X148501429Y-75510000D01*
X148430001Y-75367143D01*
X148358572Y-75295714D01*
X148215715Y-75224286D01*
X147930001Y-75152857D01*
X147787143Y-75081429D01*
X147715715Y-75010000D01*
X147644286Y-74867143D01*
X147644286Y-74724286D01*
X147715715Y-74581429D01*
X147787143Y-74510000D01*
X147930001Y-74438571D01*
X148287143Y-74438571D01*
X148501429Y-74510000D01*
X149001429Y-74438571D02*
X149358572Y-75938571D01*
X149644286Y-74867143D01*
X149930000Y-75938571D01*
X150287143Y-74438571D01*
X150858572Y-75938571D02*
X150858572Y-74438571D01*
X151215715Y-74438571D01*
X151430000Y-74510000D01*
X151572858Y-74652857D01*
X151644286Y-74795714D01*
X151715715Y-75081429D01*
X151715715Y-75295714D01*
X151644286Y-75581429D01*
X151572858Y-75724286D01*
X151430000Y-75867143D01*
X151215715Y-75938571D01*
X150858572Y-75938571D01*
X147858572Y-73138571D02*
X147858572Y-71638571D01*
X148430000Y-71638571D01*
X148572858Y-71710000D01*
X148644286Y-71781429D01*
X148715715Y-71924286D01*
X148715715Y-72138571D01*
X148644286Y-72281429D01*
X148572858Y-72352857D01*
X148430000Y-72424286D01*
X147858572Y-72424286D01*
X150144286Y-73138571D02*
X149287143Y-73138571D01*
X149715715Y-73138571D02*
X149715715Y-71638571D01*
X149572858Y-71852857D01*
X149430000Y-71995714D01*
X149287143Y-72067143D01*
X150858571Y-73138571D02*
X151144286Y-73138571D01*
X151287143Y-73067143D01*
X151358571Y-72995714D01*
X151501429Y-72781429D01*
X151572857Y-72495714D01*
X151572857Y-71924286D01*
X151501429Y-71781429D01*
X151430000Y-71710000D01*
X151287143Y-71638571D01*
X151001429Y-71638571D01*
X150858571Y-71710000D01*
X150787143Y-71781429D01*
X150715714Y-71924286D01*
X150715714Y-72281429D01*
X150787143Y-72424286D01*
X150858571Y-72495714D01*
X151001429Y-72567143D01*
X151287143Y-72567143D01*
X151430000Y-72495714D01*
X151501429Y-72424286D01*
X151572857Y-72281429D01*
X147858572Y-70938571D02*
X147858572Y-69438571D01*
X148430000Y-69438571D01*
X148572858Y-69510000D01*
X148644286Y-69581429D01*
X148715715Y-69724286D01*
X148715715Y-69938571D01*
X148644286Y-70081429D01*
X148572858Y-70152857D01*
X148430000Y-70224286D01*
X147858572Y-70224286D01*
X149287143Y-69581429D02*
X149358572Y-69510000D01*
X149501429Y-69438571D01*
X149858572Y-69438571D01*
X150001429Y-69510000D01*
X150072858Y-69581429D01*
X150144286Y-69724286D01*
X150144286Y-69867143D01*
X150072858Y-70081429D01*
X149215715Y-70938571D01*
X150144286Y-70938571D01*
X151072857Y-69438571D02*
X151215714Y-69438571D01*
X151358571Y-69510000D01*
X151430000Y-69581429D01*
X151501429Y-69724286D01*
X151572857Y-70010000D01*
X151572857Y-70367143D01*
X151501429Y-70652857D01*
X151430000Y-70795714D01*
X151358571Y-70867143D01*
X151215714Y-70938571D01*
X151072857Y-70938571D01*
X150930000Y-70867143D01*
X150858571Y-70795714D01*
X150787143Y-70652857D01*
X150715714Y-70367143D01*
X150715714Y-70010000D01*
X150787143Y-69724286D01*
X150858571Y-69581429D01*
X150930000Y-69510000D01*
X151072857Y-69438571D01*
X138458572Y-91338571D02*
X138458572Y-89838571D01*
X139030000Y-89838571D01*
X139172858Y-89910000D01*
X139244286Y-89981429D01*
X139315715Y-90124286D01*
X139315715Y-90338571D01*
X139244286Y-90481429D01*
X139172858Y-90552857D01*
X139030000Y-90624286D01*
X138458572Y-90624286D01*
X140244286Y-89838571D02*
X140387143Y-89838571D01*
X140530000Y-89910000D01*
X140601429Y-89981429D01*
X140672858Y-90124286D01*
X140744286Y-90410000D01*
X140744286Y-90767143D01*
X140672858Y-91052857D01*
X140601429Y-91195714D01*
X140530000Y-91267143D01*
X140387143Y-91338571D01*
X140244286Y-91338571D01*
X140101429Y-91267143D01*
X140030000Y-91195714D01*
X139958572Y-91052857D01*
X139887143Y-90767143D01*
X139887143Y-90410000D01*
X139958572Y-90124286D01*
X140030000Y-89981429D01*
X140101429Y-89910000D01*
X140244286Y-89838571D01*
X142101429Y-89838571D02*
X141387143Y-89838571D01*
X141315714Y-90552857D01*
X141387143Y-90481429D01*
X141530000Y-90410000D01*
X141887143Y-90410000D01*
X142030000Y-90481429D01*
X142101429Y-90552857D01*
X142172857Y-90695714D01*
X142172857Y-91052857D01*
X142101429Y-91195714D01*
X142030000Y-91267143D01*
X141887143Y-91338571D01*
X141530000Y-91338571D01*
X141387143Y-91267143D01*
X141315714Y-91195714D01*
X138458572Y-88738571D02*
X138458572Y-87238571D01*
X139030000Y-87238571D01*
X139172858Y-87310000D01*
X139244286Y-87381429D01*
X139315715Y-87524286D01*
X139315715Y-87738571D01*
X139244286Y-87881429D01*
X139172858Y-87952857D01*
X139030000Y-88024286D01*
X138458572Y-88024286D01*
X140244286Y-87238571D02*
X140387143Y-87238571D01*
X140530000Y-87310000D01*
X140601429Y-87381429D01*
X140672858Y-87524286D01*
X140744286Y-87810000D01*
X140744286Y-88167143D01*
X140672858Y-88452857D01*
X140601429Y-88595714D01*
X140530000Y-88667143D01*
X140387143Y-88738571D01*
X140244286Y-88738571D01*
X140101429Y-88667143D01*
X140030000Y-88595714D01*
X139958572Y-88452857D01*
X139887143Y-88167143D01*
X139887143Y-87810000D01*
X139958572Y-87524286D01*
X140030000Y-87381429D01*
X140101429Y-87310000D01*
X140244286Y-87238571D01*
X141244286Y-87238571D02*
X142244286Y-87238571D01*
X141601429Y-88738571D01*
X138458572Y-86338571D02*
X138458572Y-84838571D01*
X139030000Y-84838571D01*
X139172858Y-84910000D01*
X139244286Y-84981429D01*
X139315715Y-85124286D01*
X139315715Y-85338571D01*
X139244286Y-85481429D01*
X139172858Y-85552857D01*
X139030000Y-85624286D01*
X138458572Y-85624286D01*
X140244286Y-84838571D02*
X140387143Y-84838571D01*
X140530000Y-84910000D01*
X140601429Y-84981429D01*
X140672858Y-85124286D01*
X140744286Y-85410000D01*
X140744286Y-85767143D01*
X140672858Y-86052857D01*
X140601429Y-86195714D01*
X140530000Y-86267143D01*
X140387143Y-86338571D01*
X140244286Y-86338571D01*
X140101429Y-86267143D01*
X140030000Y-86195714D01*
X139958572Y-86052857D01*
X139887143Y-85767143D01*
X139887143Y-85410000D01*
X139958572Y-85124286D01*
X140030000Y-84981429D01*
X140101429Y-84910000D01*
X140244286Y-84838571D01*
X141458571Y-86338571D02*
X141744286Y-86338571D01*
X141887143Y-86267143D01*
X141958571Y-86195714D01*
X142101429Y-85981429D01*
X142172857Y-85695714D01*
X142172857Y-85124286D01*
X142101429Y-84981429D01*
X142030000Y-84910000D01*
X141887143Y-84838571D01*
X141601429Y-84838571D01*
X141458571Y-84910000D01*
X141387143Y-84981429D01*
X141315714Y-85124286D01*
X141315714Y-85481429D01*
X141387143Y-85624286D01*
X141458571Y-85695714D01*
X141601429Y-85767143D01*
X141887143Y-85767143D01*
X142030000Y-85695714D01*
X142101429Y-85624286D01*
X142172857Y-85481429D01*
X138458572Y-83538571D02*
X138458572Y-82038571D01*
X139030000Y-82038571D01*
X139172858Y-82110000D01*
X139244286Y-82181429D01*
X139315715Y-82324286D01*
X139315715Y-82538571D01*
X139244286Y-82681429D01*
X139172858Y-82752857D01*
X139030000Y-82824286D01*
X138458572Y-82824286D01*
X140744286Y-83538571D02*
X139887143Y-83538571D01*
X140315715Y-83538571D02*
X140315715Y-82038571D01*
X140172858Y-82252857D01*
X140030000Y-82395714D01*
X139887143Y-82467143D01*
X142172857Y-83538571D02*
X141315714Y-83538571D01*
X141744286Y-83538571D02*
X141744286Y-82038571D01*
X141601429Y-82252857D01*
X141458571Y-82395714D01*
X141315714Y-82467143D01*
X138458572Y-81138571D02*
X138458572Y-79638571D01*
X139030000Y-79638571D01*
X139172858Y-79710000D01*
X139244286Y-79781429D01*
X139315715Y-79924286D01*
X139315715Y-80138571D01*
X139244286Y-80281429D01*
X139172858Y-80352857D01*
X139030000Y-80424286D01*
X138458572Y-80424286D01*
X140744286Y-81138571D02*
X139887143Y-81138571D01*
X140315715Y-81138571D02*
X140315715Y-79638571D01*
X140172858Y-79852857D01*
X140030000Y-79995714D01*
X139887143Y-80067143D01*
X141244286Y-79638571D02*
X142172857Y-79638571D01*
X141672857Y-80210000D01*
X141887143Y-80210000D01*
X142030000Y-80281429D01*
X142101429Y-80352857D01*
X142172857Y-80495714D01*
X142172857Y-80852857D01*
X142101429Y-80995714D01*
X142030000Y-81067143D01*
X141887143Y-81138571D01*
X141458571Y-81138571D01*
X141315714Y-81067143D01*
X141244286Y-80995714D01*
X138458572Y-78538571D02*
X138458572Y-77038571D01*
X139030000Y-77038571D01*
X139172858Y-77110000D01*
X139244286Y-77181429D01*
X139315715Y-77324286D01*
X139315715Y-77538571D01*
X139244286Y-77681429D01*
X139172858Y-77752857D01*
X139030000Y-77824286D01*
X138458572Y-77824286D01*
X140744286Y-78538571D02*
X139887143Y-78538571D01*
X140315715Y-78538571D02*
X140315715Y-77038571D01*
X140172858Y-77252857D01*
X140030000Y-77395714D01*
X139887143Y-77467143D01*
X142101429Y-77038571D02*
X141387143Y-77038571D01*
X141315714Y-77752857D01*
X141387143Y-77681429D01*
X141530000Y-77610000D01*
X141887143Y-77610000D01*
X142030000Y-77681429D01*
X142101429Y-77752857D01*
X142172857Y-77895714D01*
X142172857Y-78252857D01*
X142101429Y-78395714D01*
X142030000Y-78467143D01*
X141887143Y-78538571D01*
X141530000Y-78538571D01*
X141387143Y-78467143D01*
X141315714Y-78395714D01*
X137651428Y-76067143D02*
X137865714Y-76138571D01*
X138222857Y-76138571D01*
X138365714Y-76067143D01*
X138437143Y-75995714D01*
X138508571Y-75852857D01*
X138508571Y-75710000D01*
X138437143Y-75567143D01*
X138365714Y-75495714D01*
X138222857Y-75424286D01*
X137937143Y-75352857D01*
X137794285Y-75281429D01*
X137722857Y-75210000D01*
X137651428Y-75067143D01*
X137651428Y-74924286D01*
X137722857Y-74781429D01*
X137794285Y-74710000D01*
X137937143Y-74638571D01*
X138294285Y-74638571D01*
X138508571Y-74710000D01*
X139008571Y-74638571D02*
X139365714Y-76138571D01*
X139651428Y-75067143D01*
X139937142Y-76138571D01*
X140294285Y-74638571D01*
X140865714Y-76138571D02*
X140865714Y-74638571D01*
X141865714Y-74638571D02*
X142151428Y-74638571D01*
X142294286Y-74710000D01*
X142437143Y-74852857D01*
X142508571Y-75138571D01*
X142508571Y-75638571D01*
X142437143Y-75924286D01*
X142294286Y-76067143D01*
X142151428Y-76138571D01*
X141865714Y-76138571D01*
X141722857Y-76067143D01*
X141580000Y-75924286D01*
X141508571Y-75638571D01*
X141508571Y-75138571D01*
X141580000Y-74852857D01*
X141722857Y-74710000D01*
X141865714Y-74638571D01*
X138458572Y-73538571D02*
X138458572Y-72038571D01*
X139030000Y-72038571D01*
X139172858Y-72110000D01*
X139244286Y-72181429D01*
X139315715Y-72324286D01*
X139315715Y-72538571D01*
X139244286Y-72681429D01*
X139172858Y-72752857D01*
X139030000Y-72824286D01*
X138458572Y-72824286D01*
X140744286Y-73538571D02*
X139887143Y-73538571D01*
X140315715Y-73538571D02*
X140315715Y-72038571D01*
X140172858Y-72252857D01*
X140030000Y-72395714D01*
X139887143Y-72467143D01*
X141244286Y-72038571D02*
X142244286Y-72038571D01*
X141601429Y-73538571D01*
X138458572Y-71138571D02*
X138458572Y-69638571D01*
X139030000Y-69638571D01*
X139172858Y-69710000D01*
X139244286Y-69781429D01*
X139315715Y-69924286D01*
X139315715Y-70138571D01*
X139244286Y-70281429D01*
X139172858Y-70352857D01*
X139030000Y-70424286D01*
X138458572Y-70424286D01*
X140744286Y-71138571D02*
X139887143Y-71138571D01*
X140315715Y-71138571D02*
X140315715Y-69638571D01*
X140172858Y-69852857D01*
X140030000Y-69995714D01*
X139887143Y-70067143D01*
X141601429Y-70281429D02*
X141458571Y-70210000D01*
X141387143Y-70138571D01*
X141315714Y-69995714D01*
X141315714Y-69924286D01*
X141387143Y-69781429D01*
X141458571Y-69710000D01*
X141601429Y-69638571D01*
X141887143Y-69638571D01*
X142030000Y-69710000D01*
X142101429Y-69781429D01*
X142172857Y-69924286D01*
X142172857Y-69995714D01*
X142101429Y-70138571D01*
X142030000Y-70210000D01*
X141887143Y-70281429D01*
X141601429Y-70281429D01*
X141458571Y-70352857D01*
X141387143Y-70424286D01*
X141315714Y-70567143D01*
X141315714Y-70852857D01*
X141387143Y-70995714D01*
X141458571Y-71067143D01*
X141601429Y-71138571D01*
X141887143Y-71138571D01*
X142030000Y-71067143D01*
X142101429Y-70995714D01*
X142172857Y-70852857D01*
X142172857Y-70567143D01*
X142101429Y-70424286D01*
X142030000Y-70352857D01*
X141887143Y-70281429D01*
X110458572Y-91338571D02*
X110458572Y-89838571D01*
X111030000Y-89838571D01*
X111172858Y-89910000D01*
X111244286Y-89981429D01*
X111315715Y-90124286D01*
X111315715Y-90338571D01*
X111244286Y-90481429D01*
X111172858Y-90552857D01*
X111030000Y-90624286D01*
X110458572Y-90624286D01*
X112244286Y-89838571D02*
X112387143Y-89838571D01*
X112530000Y-89910000D01*
X112601429Y-89981429D01*
X112672858Y-90124286D01*
X112744286Y-90410000D01*
X112744286Y-90767143D01*
X112672858Y-91052857D01*
X112601429Y-91195714D01*
X112530000Y-91267143D01*
X112387143Y-91338571D01*
X112244286Y-91338571D01*
X112101429Y-91267143D01*
X112030000Y-91195714D01*
X111958572Y-91052857D01*
X111887143Y-90767143D01*
X111887143Y-90410000D01*
X111958572Y-90124286D01*
X112030000Y-89981429D01*
X112101429Y-89910000D01*
X112244286Y-89838571D01*
X114030000Y-90338571D02*
X114030000Y-91338571D01*
X113672857Y-89767143D02*
X113315714Y-90838571D01*
X114244286Y-90838571D01*
X110458572Y-88738571D02*
X110458572Y-87238571D01*
X111030000Y-87238571D01*
X111172858Y-87310000D01*
X111244286Y-87381429D01*
X111315715Y-87524286D01*
X111315715Y-87738571D01*
X111244286Y-87881429D01*
X111172858Y-87952857D01*
X111030000Y-88024286D01*
X110458572Y-88024286D01*
X112244286Y-87238571D02*
X112387143Y-87238571D01*
X112530000Y-87310000D01*
X112601429Y-87381429D01*
X112672858Y-87524286D01*
X112744286Y-87810000D01*
X112744286Y-88167143D01*
X112672858Y-88452857D01*
X112601429Y-88595714D01*
X112530000Y-88667143D01*
X112387143Y-88738571D01*
X112244286Y-88738571D01*
X112101429Y-88667143D01*
X112030000Y-88595714D01*
X111958572Y-88452857D01*
X111887143Y-88167143D01*
X111887143Y-87810000D01*
X111958572Y-87524286D01*
X112030000Y-87381429D01*
X112101429Y-87310000D01*
X112244286Y-87238571D01*
X113315714Y-87381429D02*
X113387143Y-87310000D01*
X113530000Y-87238571D01*
X113887143Y-87238571D01*
X114030000Y-87310000D01*
X114101429Y-87381429D01*
X114172857Y-87524286D01*
X114172857Y-87667143D01*
X114101429Y-87881429D01*
X113244286Y-88738571D01*
X114172857Y-88738571D01*
X110458572Y-86138571D02*
X110458572Y-84638571D01*
X111030000Y-84638571D01*
X111172858Y-84710000D01*
X111244286Y-84781429D01*
X111315715Y-84924286D01*
X111315715Y-85138571D01*
X111244286Y-85281429D01*
X111172858Y-85352857D01*
X111030000Y-85424286D01*
X110458572Y-85424286D01*
X112244286Y-84638571D02*
X112387143Y-84638571D01*
X112530000Y-84710000D01*
X112601429Y-84781429D01*
X112672858Y-84924286D01*
X112744286Y-85210000D01*
X112744286Y-85567143D01*
X112672858Y-85852857D01*
X112601429Y-85995714D01*
X112530000Y-86067143D01*
X112387143Y-86138571D01*
X112244286Y-86138571D01*
X112101429Y-86067143D01*
X112030000Y-85995714D01*
X111958572Y-85852857D01*
X111887143Y-85567143D01*
X111887143Y-85210000D01*
X111958572Y-84924286D01*
X112030000Y-84781429D01*
X112101429Y-84710000D01*
X112244286Y-84638571D01*
X113672857Y-84638571D02*
X113815714Y-84638571D01*
X113958571Y-84710000D01*
X114030000Y-84781429D01*
X114101429Y-84924286D01*
X114172857Y-85210000D01*
X114172857Y-85567143D01*
X114101429Y-85852857D01*
X114030000Y-85995714D01*
X113958571Y-86067143D01*
X113815714Y-86138571D01*
X113672857Y-86138571D01*
X113530000Y-86067143D01*
X113458571Y-85995714D01*
X113387143Y-85852857D01*
X113315714Y-85567143D01*
X113315714Y-85210000D01*
X113387143Y-84924286D01*
X113458571Y-84781429D01*
X113530000Y-84710000D01*
X113672857Y-84638571D01*
X111137143Y-82310000D02*
X110994286Y-82238571D01*
X110780000Y-82238571D01*
X110565715Y-82310000D01*
X110422857Y-82452857D01*
X110351429Y-82595714D01*
X110280000Y-82881429D01*
X110280000Y-83095714D01*
X110351429Y-83381429D01*
X110422857Y-83524286D01*
X110565715Y-83667143D01*
X110780000Y-83738571D01*
X110922857Y-83738571D01*
X111137143Y-83667143D01*
X111208572Y-83595714D01*
X111208572Y-83095714D01*
X110922857Y-83095714D01*
X111851429Y-83738571D02*
X111851429Y-82238571D01*
X112708572Y-83738571D01*
X112708572Y-82238571D01*
X113422858Y-83738571D02*
X113422858Y-82238571D01*
X113780001Y-82238571D01*
X113994286Y-82310000D01*
X114137144Y-82452857D01*
X114208572Y-82595714D01*
X114280001Y-82881429D01*
X114280001Y-83095714D01*
X114208572Y-83381429D01*
X114137144Y-83524286D01*
X113994286Y-83667143D01*
X113780001Y-83738571D01*
X113422858Y-83738571D01*
X110458572Y-81138571D02*
X110458572Y-79638571D01*
X111030000Y-79638571D01*
X111172858Y-79710000D01*
X111244286Y-79781429D01*
X111315715Y-79924286D01*
X111315715Y-80138571D01*
X111244286Y-80281429D01*
X111172858Y-80352857D01*
X111030000Y-80424286D01*
X110458572Y-80424286D01*
X111887143Y-79781429D02*
X111958572Y-79710000D01*
X112101429Y-79638571D01*
X112458572Y-79638571D01*
X112601429Y-79710000D01*
X112672858Y-79781429D01*
X112744286Y-79924286D01*
X112744286Y-80067143D01*
X112672858Y-80281429D01*
X111815715Y-81138571D01*
X112744286Y-81138571D01*
X113458571Y-81138571D02*
X113744286Y-81138571D01*
X113887143Y-81067143D01*
X113958571Y-80995714D01*
X114101429Y-80781429D01*
X114172857Y-80495714D01*
X114172857Y-79924286D01*
X114101429Y-79781429D01*
X114030000Y-79710000D01*
X113887143Y-79638571D01*
X113601429Y-79638571D01*
X113458571Y-79710000D01*
X113387143Y-79781429D01*
X113315714Y-79924286D01*
X113315714Y-80281429D01*
X113387143Y-80424286D01*
X113458571Y-80495714D01*
X113601429Y-80567143D01*
X113887143Y-80567143D01*
X114030000Y-80495714D01*
X114101429Y-80424286D01*
X114172857Y-80281429D01*
X110658572Y-78538571D02*
X110658572Y-77038571D01*
X111230000Y-77038571D01*
X111372858Y-77110000D01*
X111444286Y-77181429D01*
X111515715Y-77324286D01*
X111515715Y-77538571D01*
X111444286Y-77681429D01*
X111372858Y-77752857D01*
X111230000Y-77824286D01*
X110658572Y-77824286D01*
X112087143Y-77181429D02*
X112158572Y-77110000D01*
X112301429Y-77038571D01*
X112658572Y-77038571D01*
X112801429Y-77110000D01*
X112872858Y-77181429D01*
X112944286Y-77324286D01*
X112944286Y-77467143D01*
X112872858Y-77681429D01*
X112015715Y-78538571D01*
X112944286Y-78538571D01*
X113444286Y-77038571D02*
X114444286Y-77038571D01*
X113801429Y-78538571D01*
X110658572Y-76138571D02*
X110658572Y-74638571D01*
X111230000Y-74638571D01*
X111372858Y-74710000D01*
X111444286Y-74781429D01*
X111515715Y-74924286D01*
X111515715Y-75138571D01*
X111444286Y-75281429D01*
X111372858Y-75352857D01*
X111230000Y-75424286D01*
X110658572Y-75424286D01*
X112087143Y-74781429D02*
X112158572Y-74710000D01*
X112301429Y-74638571D01*
X112658572Y-74638571D01*
X112801429Y-74710000D01*
X112872858Y-74781429D01*
X112944286Y-74924286D01*
X112944286Y-75067143D01*
X112872858Y-75281429D01*
X112015715Y-76138571D01*
X112944286Y-76138571D01*
X114301429Y-74638571D02*
X113587143Y-74638571D01*
X113515714Y-75352857D01*
X113587143Y-75281429D01*
X113730000Y-75210000D01*
X114087143Y-75210000D01*
X114230000Y-75281429D01*
X114301429Y-75352857D01*
X114372857Y-75495714D01*
X114372857Y-75852857D01*
X114301429Y-75995714D01*
X114230000Y-76067143D01*
X114087143Y-76138571D01*
X113730000Y-76138571D01*
X113587143Y-76067143D01*
X113515714Y-75995714D01*
X110658572Y-73538571D02*
X110658572Y-72038571D01*
X111230000Y-72038571D01*
X111372858Y-72110000D01*
X111444286Y-72181429D01*
X111515715Y-72324286D01*
X111515715Y-72538571D01*
X111444286Y-72681429D01*
X111372858Y-72752857D01*
X111230000Y-72824286D01*
X110658572Y-72824286D01*
X112087143Y-72181429D02*
X112158572Y-72110000D01*
X112301429Y-72038571D01*
X112658572Y-72038571D01*
X112801429Y-72110000D01*
X112872858Y-72181429D01*
X112944286Y-72324286D01*
X112944286Y-72467143D01*
X112872858Y-72681429D01*
X112015715Y-73538571D01*
X112944286Y-73538571D01*
X113444286Y-72038571D02*
X114372857Y-72038571D01*
X113872857Y-72610000D01*
X114087143Y-72610000D01*
X114230000Y-72681429D01*
X114301429Y-72752857D01*
X114372857Y-72895714D01*
X114372857Y-73252857D01*
X114301429Y-73395714D01*
X114230000Y-73467143D01*
X114087143Y-73538571D01*
X113658571Y-73538571D01*
X113515714Y-73467143D01*
X113444286Y-73395714D01*
X110658572Y-70938571D02*
X110658572Y-69438571D01*
X111230000Y-69438571D01*
X111372858Y-69510000D01*
X111444286Y-69581429D01*
X111515715Y-69724286D01*
X111515715Y-69938571D01*
X111444286Y-70081429D01*
X111372858Y-70152857D01*
X111230000Y-70224286D01*
X110658572Y-70224286D01*
X112087143Y-69581429D02*
X112158572Y-69510000D01*
X112301429Y-69438571D01*
X112658572Y-69438571D01*
X112801429Y-69510000D01*
X112872858Y-69581429D01*
X112944286Y-69724286D01*
X112944286Y-69867143D01*
X112872858Y-70081429D01*
X112015715Y-70938571D01*
X112944286Y-70938571D01*
X114372857Y-70938571D02*
X113515714Y-70938571D01*
X113944286Y-70938571D02*
X113944286Y-69438571D01*
X113801429Y-69652857D01*
X113658571Y-69795714D01*
X113515714Y-69867143D01*
X100858572Y-91538571D02*
X100858572Y-90038571D01*
X101430000Y-90038571D01*
X101572858Y-90110000D01*
X101644286Y-90181429D01*
X101715715Y-90324286D01*
X101715715Y-90538571D01*
X101644286Y-90681429D01*
X101572858Y-90752857D01*
X101430000Y-90824286D01*
X100858572Y-90824286D01*
X102644286Y-90038571D02*
X102787143Y-90038571D01*
X102930000Y-90110000D01*
X103001429Y-90181429D01*
X103072858Y-90324286D01*
X103144286Y-90610000D01*
X103144286Y-90967143D01*
X103072858Y-91252857D01*
X103001429Y-91395714D01*
X102930000Y-91467143D01*
X102787143Y-91538571D01*
X102644286Y-91538571D01*
X102501429Y-91467143D01*
X102430000Y-91395714D01*
X102358572Y-91252857D01*
X102287143Y-90967143D01*
X102287143Y-90610000D01*
X102358572Y-90324286D01*
X102430000Y-90181429D01*
X102501429Y-90110000D01*
X102644286Y-90038571D01*
X103644286Y-90038571D02*
X104572857Y-90038571D01*
X104072857Y-90610000D01*
X104287143Y-90610000D01*
X104430000Y-90681429D01*
X104501429Y-90752857D01*
X104572857Y-90895714D01*
X104572857Y-91252857D01*
X104501429Y-91395714D01*
X104430000Y-91467143D01*
X104287143Y-91538571D01*
X103858571Y-91538571D01*
X103715714Y-91467143D01*
X103644286Y-91395714D01*
X100858572Y-88738571D02*
X100858572Y-87238571D01*
X101430000Y-87238571D01*
X101572858Y-87310000D01*
X101644286Y-87381429D01*
X101715715Y-87524286D01*
X101715715Y-87738571D01*
X101644286Y-87881429D01*
X101572858Y-87952857D01*
X101430000Y-88024286D01*
X100858572Y-88024286D01*
X102644286Y-87238571D02*
X102787143Y-87238571D01*
X102930000Y-87310000D01*
X103001429Y-87381429D01*
X103072858Y-87524286D01*
X103144286Y-87810000D01*
X103144286Y-88167143D01*
X103072858Y-88452857D01*
X103001429Y-88595714D01*
X102930000Y-88667143D01*
X102787143Y-88738571D01*
X102644286Y-88738571D01*
X102501429Y-88667143D01*
X102430000Y-88595714D01*
X102358572Y-88452857D01*
X102287143Y-88167143D01*
X102287143Y-87810000D01*
X102358572Y-87524286D01*
X102430000Y-87381429D01*
X102501429Y-87310000D01*
X102644286Y-87238571D01*
X104572857Y-88738571D02*
X103715714Y-88738571D01*
X104144286Y-88738571D02*
X104144286Y-87238571D01*
X104001429Y-87452857D01*
X103858571Y-87595714D01*
X103715714Y-87667143D01*
X100858572Y-86338571D02*
X100858572Y-84838571D01*
X101430000Y-84838571D01*
X101572858Y-84910000D01*
X101644286Y-84981429D01*
X101715715Y-85124286D01*
X101715715Y-85338571D01*
X101644286Y-85481429D01*
X101572858Y-85552857D01*
X101430000Y-85624286D01*
X100858572Y-85624286D01*
X102215715Y-84838571D02*
X103144286Y-84838571D01*
X102644286Y-85410000D01*
X102858572Y-85410000D01*
X103001429Y-85481429D01*
X103072858Y-85552857D01*
X103144286Y-85695714D01*
X103144286Y-86052857D01*
X103072858Y-86195714D01*
X103001429Y-86267143D01*
X102858572Y-86338571D01*
X102430000Y-86338571D01*
X102287143Y-86267143D01*
X102215715Y-86195714D01*
X104072857Y-84838571D02*
X104215714Y-84838571D01*
X104358571Y-84910000D01*
X104430000Y-84981429D01*
X104501429Y-85124286D01*
X104572857Y-85410000D01*
X104572857Y-85767143D01*
X104501429Y-86052857D01*
X104430000Y-86195714D01*
X104358571Y-86267143D01*
X104215714Y-86338571D01*
X104072857Y-86338571D01*
X103930000Y-86267143D01*
X103858571Y-86195714D01*
X103787143Y-86052857D01*
X103715714Y-85767143D01*
X103715714Y-85410000D01*
X103787143Y-85124286D01*
X103858571Y-84981429D01*
X103930000Y-84910000D01*
X104072857Y-84838571D01*
X100822858Y-82238571D02*
X101751429Y-82238571D01*
X101251429Y-82810000D01*
X101465715Y-82810000D01*
X101608572Y-82881429D01*
X101680001Y-82952857D01*
X101751429Y-83095714D01*
X101751429Y-83452857D01*
X101680001Y-83595714D01*
X101608572Y-83667143D01*
X101465715Y-83738571D01*
X101037143Y-83738571D01*
X100894286Y-83667143D01*
X100822858Y-83595714D01*
X102180000Y-82238571D02*
X102680000Y-83738571D01*
X103180000Y-82238571D01*
X103537143Y-82238571D02*
X104465714Y-82238571D01*
X103965714Y-82810000D01*
X104180000Y-82810000D01*
X104322857Y-82881429D01*
X104394286Y-82952857D01*
X104465714Y-83095714D01*
X104465714Y-83452857D01*
X104394286Y-83595714D01*
X104322857Y-83667143D01*
X104180000Y-83738571D01*
X103751428Y-83738571D01*
X103608571Y-83667143D01*
X103537143Y-83595714D01*
X100858572Y-80938571D02*
X100858572Y-79438571D01*
X101430000Y-79438571D01*
X101572858Y-79510000D01*
X101644286Y-79581429D01*
X101715715Y-79724286D01*
X101715715Y-79938571D01*
X101644286Y-80081429D01*
X101572858Y-80152857D01*
X101430000Y-80224286D01*
X100858572Y-80224286D01*
X102287143Y-79581429D02*
X102358572Y-79510000D01*
X102501429Y-79438571D01*
X102858572Y-79438571D01*
X103001429Y-79510000D01*
X103072858Y-79581429D01*
X103144286Y-79724286D01*
X103144286Y-79867143D01*
X103072858Y-80081429D01*
X102215715Y-80938571D01*
X103144286Y-80938571D01*
X104001429Y-80081429D02*
X103858571Y-80010000D01*
X103787143Y-79938571D01*
X103715714Y-79795714D01*
X103715714Y-79724286D01*
X103787143Y-79581429D01*
X103858571Y-79510000D01*
X104001429Y-79438571D01*
X104287143Y-79438571D01*
X104430000Y-79510000D01*
X104501429Y-79581429D01*
X104572857Y-79724286D01*
X104572857Y-79795714D01*
X104501429Y-79938571D01*
X104430000Y-80010000D01*
X104287143Y-80081429D01*
X104001429Y-80081429D01*
X103858571Y-80152857D01*
X103787143Y-80224286D01*
X103715714Y-80367143D01*
X103715714Y-80652857D01*
X103787143Y-80795714D01*
X103858571Y-80867143D01*
X104001429Y-80938571D01*
X104287143Y-80938571D01*
X104430000Y-80867143D01*
X104501429Y-80795714D01*
X104572857Y-80652857D01*
X104572857Y-80367143D01*
X104501429Y-80224286D01*
X104430000Y-80152857D01*
X104287143Y-80081429D01*
X100858572Y-78738571D02*
X100858572Y-77238571D01*
X101430000Y-77238571D01*
X101572858Y-77310000D01*
X101644286Y-77381429D01*
X101715715Y-77524286D01*
X101715715Y-77738571D01*
X101644286Y-77881429D01*
X101572858Y-77952857D01*
X101430000Y-78024286D01*
X100858572Y-78024286D01*
X102287143Y-77381429D02*
X102358572Y-77310000D01*
X102501429Y-77238571D01*
X102858572Y-77238571D01*
X103001429Y-77310000D01*
X103072858Y-77381429D01*
X103144286Y-77524286D01*
X103144286Y-77667143D01*
X103072858Y-77881429D01*
X102215715Y-78738571D01*
X103144286Y-78738571D01*
X104430000Y-77238571D02*
X104144286Y-77238571D01*
X104001429Y-77310000D01*
X103930000Y-77381429D01*
X103787143Y-77595714D01*
X103715714Y-77881429D01*
X103715714Y-78452857D01*
X103787143Y-78595714D01*
X103858571Y-78667143D01*
X104001429Y-78738571D01*
X104287143Y-78738571D01*
X104430000Y-78667143D01*
X104501429Y-78595714D01*
X104572857Y-78452857D01*
X104572857Y-78095714D01*
X104501429Y-77952857D01*
X104430000Y-77881429D01*
X104287143Y-77810000D01*
X104001429Y-77810000D01*
X103858571Y-77881429D01*
X103787143Y-77952857D01*
X103715714Y-78095714D01*
X100858572Y-76138571D02*
X100858572Y-74638571D01*
X101430000Y-74638571D01*
X101572858Y-74710000D01*
X101644286Y-74781429D01*
X101715715Y-74924286D01*
X101715715Y-75138571D01*
X101644286Y-75281429D01*
X101572858Y-75352857D01*
X101430000Y-75424286D01*
X100858572Y-75424286D01*
X102287143Y-74781429D02*
X102358572Y-74710000D01*
X102501429Y-74638571D01*
X102858572Y-74638571D01*
X103001429Y-74710000D01*
X103072858Y-74781429D01*
X103144286Y-74924286D01*
X103144286Y-75067143D01*
X103072858Y-75281429D01*
X102215715Y-76138571D01*
X103144286Y-76138571D01*
X104430000Y-75138571D02*
X104430000Y-76138571D01*
X104072857Y-74567143D02*
X103715714Y-75638571D01*
X104644286Y-75638571D01*
X100858572Y-73338571D02*
X100858572Y-71838571D01*
X101430000Y-71838571D01*
X101572858Y-71910000D01*
X101644286Y-71981429D01*
X101715715Y-72124286D01*
X101715715Y-72338571D01*
X101644286Y-72481429D01*
X101572858Y-72552857D01*
X101430000Y-72624286D01*
X100858572Y-72624286D01*
X102287143Y-71981429D02*
X102358572Y-71910000D01*
X102501429Y-71838571D01*
X102858572Y-71838571D01*
X103001429Y-71910000D01*
X103072858Y-71981429D01*
X103144286Y-72124286D01*
X103144286Y-72267143D01*
X103072858Y-72481429D01*
X102215715Y-73338571D01*
X103144286Y-73338571D01*
X103715714Y-71981429D02*
X103787143Y-71910000D01*
X103930000Y-71838571D01*
X104287143Y-71838571D01*
X104430000Y-71910000D01*
X104501429Y-71981429D01*
X104572857Y-72124286D01*
X104572857Y-72267143D01*
X104501429Y-72481429D01*
X103644286Y-73338571D01*
X104572857Y-73338571D01*
X101537143Y-69510000D02*
X101394286Y-69438571D01*
X101180000Y-69438571D01*
X100965715Y-69510000D01*
X100822857Y-69652857D01*
X100751429Y-69795714D01*
X100680000Y-70081429D01*
X100680000Y-70295714D01*
X100751429Y-70581429D01*
X100822857Y-70724286D01*
X100965715Y-70867143D01*
X101180000Y-70938571D01*
X101322857Y-70938571D01*
X101537143Y-70867143D01*
X101608572Y-70795714D01*
X101608572Y-70295714D01*
X101322857Y-70295714D01*
X102251429Y-70938571D02*
X102251429Y-69438571D01*
X103108572Y-70938571D01*
X103108572Y-69438571D01*
X103822858Y-70938571D02*
X103822858Y-69438571D01*
X104180001Y-69438571D01*
X104394286Y-69510000D01*
X104537144Y-69652857D01*
X104608572Y-69795714D01*
X104680001Y-70081429D01*
X104680001Y-70295714D01*
X104608572Y-70581429D01*
X104537144Y-70724286D01*
X104394286Y-70867143D01*
X104180001Y-70938571D01*
X103822858Y-70938571D01*
D14*
X118340000Y-71260000D02*
X118340000Y-87320000D01*
X118340000Y-87320000D02*
X114220000Y-87320000D01*
X114220000Y-87320000D02*
X114220000Y-69200000D01*
X114220000Y-69200000D02*
X116280000Y-69200000D01*
X116280000Y-69200000D02*
X116280000Y-71260000D01*
X116280000Y-71260000D02*
X118340000Y-71260000D01*
X118340000Y-70260000D02*
X118340000Y-69200000D01*
X118340000Y-69200000D02*
X117340000Y-69200000D01*
X134220000Y-71260000D02*
X134220000Y-87320000D01*
X134220000Y-87320000D02*
X138340000Y-87320000D01*
X138340000Y-87320000D02*
X138340000Y-69200000D01*
X138340000Y-69200000D02*
X136280000Y-69200000D01*
X136280000Y-69200000D02*
X136280000Y-71260000D01*
X136280000Y-71260000D02*
X134220000Y-71260000D01*
X134220000Y-70260000D02*
X134220000Y-69200000D01*
X134220000Y-69200000D02*
X135280000Y-69200000D01*
X110610000Y-71530000D02*
X110610000Y-91910000D01*
X110610000Y-91910000D02*
X105410000Y-91910000D01*
X105410000Y-91910000D02*
X105410000Y-68930000D01*
X105410000Y-68930000D02*
X108010000Y-68930000D01*
X108010000Y-68930000D02*
X108010000Y-71530000D01*
X108010000Y-71530000D02*
X110610000Y-71530000D01*
X110610000Y-70260000D02*
X110610000Y-68930000D01*
X110610000Y-68930000D02*
X109340000Y-68930000D01*
X141950000Y-71530000D02*
X141950000Y-91910000D01*
X141950000Y-91910000D02*
X147150000Y-91910000D01*
X147150000Y-91910000D02*
X147150000Y-68930000D01*
X147150000Y-68930000D02*
X144550000Y-68930000D01*
X144550000Y-68930000D02*
X144550000Y-71530000D01*
X144550000Y-71530000D02*
X141950000Y-71530000D01*
X141950000Y-70260000D02*
X141950000Y-68930000D01*
X141950000Y-68930000D02*
X143280000Y-68930000D01*
D11*
X115946667Y-67652381D02*
X115946667Y-68366667D01*
X115899047Y-68509524D01*
X115803809Y-68604762D01*
X115660952Y-68652381D01*
X115565714Y-68652381D01*
X116946667Y-68652381D02*
X116375238Y-68652381D01*
X116660952Y-68652381D02*
X116660952Y-67652381D01*
X116565714Y-67795238D01*
X116470476Y-67890476D01*
X116375238Y-67938095D01*
X135946667Y-67652381D02*
X135946667Y-68366667D01*
X135899047Y-68509524D01*
X135803809Y-68604762D01*
X135660952Y-68652381D01*
X135565714Y-68652381D01*
X136375238Y-67747619D02*
X136422857Y-67700000D01*
X136518095Y-67652381D01*
X136756191Y-67652381D01*
X136851429Y-67700000D01*
X136899048Y-67747619D01*
X136946667Y-67842857D01*
X136946667Y-67938095D01*
X136899048Y-68080952D01*
X136327619Y-68652381D01*
X136946667Y-68652381D01*
X107676667Y-67382381D02*
X107676667Y-68096667D01*
X107629047Y-68239524D01*
X107533809Y-68334762D01*
X107390952Y-68382381D01*
X107295714Y-68382381D01*
X108057619Y-67382381D02*
X108676667Y-67382381D01*
X108343333Y-67763333D01*
X108486191Y-67763333D01*
X108581429Y-67810952D01*
X108629048Y-67858571D01*
X108676667Y-67953810D01*
X108676667Y-68191905D01*
X108629048Y-68287143D01*
X108581429Y-68334762D01*
X108486191Y-68382381D01*
X108200476Y-68382381D01*
X108105238Y-68334762D01*
X108057619Y-68287143D01*
X144216667Y-67382381D02*
X144216667Y-68096667D01*
X144169047Y-68239524D01*
X144073809Y-68334762D01*
X143930952Y-68382381D01*
X143835714Y-68382381D01*
X145121429Y-67715714D02*
X145121429Y-68382381D01*
X144883333Y-67334762D02*
X144645238Y-68049048D01*
X145264286Y-68049048D01*
M02*
