M48
;DRILL file {KiCad 4.0.6-e0-6349~53~ubuntu16.04.1} date Thu Jun 15 14:39:41 2017
;FORMAT={-:-/ absolute / inch / decimal}
FMAT,2
INCH,TZ
T1C0.031
T2C0.039
%
G90
G05
M72
T1
X4.5386Y-2.7661
X4.5386Y-2.8449
X4.5386Y-2.9236
X4.5386Y-3.0024
X4.5386Y-3.0811
X4.5386Y-3.1598
X4.5386Y-3.2386
X4.5386Y-3.3173
X4.5386Y-3.3961
X4.6173Y-2.7661
X4.6173Y-2.8449
X4.6173Y-2.9236
X4.6173Y-3.0024
X4.6173Y-3.0811
X4.6173Y-3.1598
X4.6173Y-3.2386
X4.6173Y-3.3173
X4.6173Y-3.3961
X5.326Y-2.7661
X5.326Y-2.8449
X5.326Y-2.9236
X5.326Y-3.0024
X5.326Y-3.0811
X5.326Y-3.1598
X5.326Y-3.2386
X5.326Y-3.3173
X5.326Y-3.3961
X5.4047Y-2.7661
X5.4047Y-2.8449
X5.4047Y-2.9236
X5.4047Y-3.0024
X5.4047Y-3.0811
X5.4047Y-3.1598
X5.4047Y-3.2386
X5.4047Y-3.3173
X5.4047Y-3.3961
T2
X4.2024Y-2.7661
X4.2024Y-2.8661
X4.2024Y-2.9661
X4.2024Y-3.0661
X4.2024Y-3.1661
X4.2024Y-3.2661
X4.2024Y-3.3661
X4.2024Y-3.4661
X4.2024Y-3.5661
X4.3024Y-2.7661
X4.3024Y-2.8661
X4.3024Y-2.9661
X4.3024Y-3.0661
X4.3024Y-3.1661
X4.3024Y-3.2661
X4.3024Y-3.3661
X4.3024Y-3.4661
X4.3024Y-3.5661
X5.6409Y-2.7661
X5.6409Y-2.8661
X5.6409Y-2.9661
X5.6409Y-3.0661
X5.6409Y-3.1661
X5.6409Y-3.2661
X5.6409Y-3.3661
X5.6409Y-3.4661
X5.6409Y-3.5661
X5.7409Y-2.7661
X5.7409Y-2.8661
X5.7409Y-2.9661
X5.7409Y-3.0661
X5.7409Y-3.1661
X5.7409Y-3.2661
X5.7409Y-3.3661
X5.7409Y-3.4661
X5.7409Y-3.5661
T0
M30
